<svg width="24" height="24" viewBox="0 0 24 24" fill="none" xmlns="http://www.w3.org/2000/svg">
<path fill-rule="evenodd" clip-rule="evenodd" d="M5.5 15C7.433 15 9 16.567 9 18.5C9 20.433 7.433 22 5.5 22C3.567 22 2 20.433 2 18.5C2 16.567 3.567 15 5.5 15ZM5.5 17C4.67157 17 4 17.6716 4 18.5C4 19.3284 4.67157 20 5.5 20C6.32843 20 7 19.3284 7 18.5C7 17.6716 6.32843 17 5.5 17Z" fill="black"/>
<path d="M13 6.5H6V6.51465C4.87506 6.63906 4 7.5919 4 8.75C4 9.90807 4.87511 10.8599 6 10.9844V11H18V11.0078C20.2308 11.1372 22 12.9867 22 15.25C22 17.5133 20.2308 19.3618 18 19.4912V19.5H11V17.5H18V17.4844C19.1249 17.3599 20 16.4081 20 15.25C20 14.0919 19.1249 13.1391 18 13.0146V13H6V12.9912C3.7692 12.8618 2 11.0133 2 8.75C2 6.48672 3.76917 4.63723 6 4.50781V4.5H13V6.5Z" fill="black"/>
<path fill-rule="evenodd" clip-rule="evenodd" d="M18.5 2C20.433 2 22 3.567 22 5.5C22 7.433 20.433 9 18.5 9C16.567 9 15 7.433 15 5.5C15 3.567 16.567 2 18.5 2ZM18.5 4C17.6716 4 17 4.67157 17 5.5C17 6.32843 17.6716 7 18.5 7C19.3284 7 20 6.32843 20 5.5C20 4.67157 19.3284 4 18.5 4Z" fill="black"/>
</svg>
