<svg width="24" height="24" viewBox="0 0 24 24" fill="none" xmlns="http://www.w3.org/2000/svg">
<path fill-rule="evenodd" clip-rule="evenodd" d="M5.5 15C7.433 15 9 16.567 9 18.5C9 20.433 7.433 22 5.5 22C3.567 22 2 20.433 2 18.5C2 16.567 3.567 15 5.5 15Z" fill="black"/>
<path d="M13 6.5H6V6.51465C4.87506 6.63906 4 7.5919 4 8.75C4 9.90807 4.87511 10.8599 6 10.9844V11H18V11.0078C20.2308 11.1372 22 12.9867 22 15.25C22 17.5133 20.2308 19.3618 18 19.4912V19.5H11V17.5H18V17.4844C19.1249 17.3599 20 16.4081 20 15.25C20 14.0919 19.1249 13.1391 18 13.0146V13H6V12.9912C3.7692 12.8618 2 11.0133 2 8.75C2 6.48672 3.76917 4.63723 6 4.50781V4.5H13V6.5Z" fill="black"/>
<path fill-rule="evenodd" clip-rule="evenodd" d="M18.5 2C20.433 2 22 3.567 22 5.5C22 7.433 20.433 9 18.5 9C16.567 9 15 7.433 15 5.5C15 3.567 16.567 2 18.5 2Z" fill="black"/>
</svg>
