<svg width="24" height="24" viewBox="0 0 24 24" fill="none" xmlns="http://www.w3.org/2000/svg">
<path d="M2 7.67257C2 6.9109 2.43263 6.21534 3.11584 5.87862L11.1158 1.93577C11.6733 1.66103 12.3267 1.66103 12.8842 1.93576L15.1832 3.06886L5.33077 8.06971V12.8441C5.33077 13.0443 5.4502 13.2252 5.63432 13.3039L7.92851 14.2841C8.25838 14.425 8.62496 14.183 8.62496 13.8243V9.69386L18.2737 4.59202L20.8842 5.87862C21.5674 6.21534 22 6.9109 22 7.67257V15.9454C22 16.6827 21.5944 17.3602 20.9444 17.7083L12.9444 21.994C12.3545 22.3101 11.6455 22.3101 11.0556 21.994L3.05556 17.7083C2.40565 17.3602 2 16.6827 2 15.9454V7.67257Z" fill="black"/>
</svg>
