<svg width="24" height="24" viewBox="0 0 24 24" fill="none" xmlns="http://www.w3.org/2000/svg">
<path fill-rule="evenodd" clip-rule="evenodd" d="M14.8282 9.87843L13.414 11.2926C12.2842 10.1629 10.4776 10.1226 9.29957 11.1716L9.17132 11.2926L5.28224 15.1817C4.30593 16.158 4.30593 17.741 5.28224 18.7173C6.21949 19.6545 7.7158 19.692 8.69778 18.8297L8.81777 18.7173L10.5855 16.9495L11.9998 18.3637L10.232 20.1315C8.47462 21.8888 5.62538 21.8888 3.86802 20.1315C2.16087 18.4243 2.1121 15.6868 3.7217 13.9208L3.86802 13.7675L7.75711 9.87843C9.65835 7.97719 12.7098 7.92716 14.6715 9.72833L14.8282 9.87843ZM20.1315 3.86802C21.8386 5.57517 21.8874 8.3127 20.2778 10.0787L20.1315 10.232L16.2424 14.1211C14.3412 16.0223 11.2897 16.0723 9.32795 14.2712L9.17132 14.1211L10.5855 12.7069C11.7153 13.8366 13.5219 13.8769 14.6999 12.8279L14.8282 12.7069L18.7173 8.81777C19.6936 7.84146 19.6936 6.25855 18.7173 5.28224C17.78 4.34498 16.2837 4.30749 15.3017 5.16976L15.1817 5.28224L13.414 7.05L11.9998 5.63579L13.7675 3.86802C15.5249 2.11066 18.3741 2.11066 20.1315 3.86802Z" fill="black"/>
</svg>
