<svg width="24" height="24" viewBox="0 0 24 24" fill="none" xmlns="http://www.w3.org/2000/svg">
<path fill-rule="evenodd" clip-rule="evenodd" d="M4.88558 6.80209C4.028 6.80209 3.30036 7.0145 2.76803 7.50139C2.2307 7.99204 2 8.70474 2 9.55166V14.4484C2 15.2961 2.23091 16.0104 2.76427 16.5089L2.77158 16.5155C3.30401 16.9913 4.03026 17.198 4.88558 17.198H6.81708C7.05854 17.198 7.25429 17.0022 7.25429 16.7608V15.727C7.25429 15.4855 7.05854 15.2898 6.81708 15.2898H4.74956C4.50713 15.2898 4.34976 15.221 4.23565 15.1118C4.11074 14.9923 4.0578 14.8651 4.0578 14.7068V9.29322C4.0578 9.13494 4.11074 9.00773 4.23565 8.88825C4.34976 8.7791 4.50713 8.71027 4.74956 8.71027H6.81708C7.05854 8.71027 7.25429 8.51453 7.25429 8.27306V7.2393C7.25429 6.99784 7.05854 6.80209 6.81708 6.80209H4.88558ZM11.7008 6.80209C10.8431 6.80209 10.1155 7.01452 9.58315 7.50144C9.04586 7.99209 8.81517 8.70476 8.81517 9.55166V14.4484C8.81517 15.2961 9.04608 16.0104 9.57944 16.5089L9.58675 16.5155C10.1192 16.9913 10.8454 17.198 11.7008 17.198H12.2448C13.0994 17.198 13.8242 16.9913 14.349 16.512C14.8933 16.0141 15.1304 15.2988 15.1304 14.4484V9.55166C15.1304 8.70388 14.8946 7.99136 14.3489 7.50146C13.8244 7.01332 13.0999 6.80209 12.2448 6.80209H11.7008ZM17.3461 6.80209C17.1047 6.80209 16.9089 6.99784 16.9089 7.2393V8.27306C16.9089 8.51453 17.1047 8.71027 17.3461 8.71027H18.9784C19.2208 8.71027 19.3782 8.7791 19.4923 8.88825C19.6172 9.00773 19.6702 9.13494 19.6702 9.29322V10.2454C19.6702 10.5813 19.652 10.81 19.6242 10.9485C19.5991 11.0742 19.5471 11.2089 19.4604 11.3534L19.4589 11.356L19.457 11.3593C19.3675 11.5139 19.1819 11.7954 18.8915 12.2128L16.6369 15.4257V17.198H21.5628C21.8043 17.198 22 17.0022 22 16.7608V15.727C22 15.4855 21.8043 15.2898 21.5628 15.2898H19.1708L20.6958 13.1363L20.6972 13.1343C20.9717 12.7408 21.1781 12.4208 21.3079 12.1811C21.4477 11.923 21.5511 11.6349 21.622 11.321C21.6955 10.9957 21.728 10.5926 21.728 10.1229V9.55166C21.728 8.70391 21.4922 7.99141 20.9465 7.50151C20.422 7.01333 19.6974 6.80209 18.8424 6.80209H17.3461ZM11.0508 8.88825C11.1649 8.7791 11.3223 8.71027 11.5647 8.71027H12.3809C12.6233 8.71027 12.7807 8.7791 12.8948 8.88825C13.0197 9.00773 13.0726 9.13494 13.0726 9.29322V14.7068C13.0726 14.8651 13.0197 14.9923 12.8948 15.1118C12.7807 15.221 12.6233 15.2898 12.3809 15.2898H11.5647C11.3223 15.2898 11.1649 15.221 11.0508 15.1118C10.9259 14.9923 10.873 14.8651 10.873 14.7068V9.29322C10.873 9.13494 10.9259 9.00773 11.0508 8.88825Z" fill="black"/>
</svg>
