<svg width="24" height="24" viewBox="0 0 24 24" fill="none" xmlns="http://www.w3.org/2000/svg">
<path fill-rule="evenodd" clip-rule="evenodd" d="M12 1.99997C6.47714 1.99998 2 6.47715 2 12C2 17.5228 6.47715 22 12 22C17.5228 22 22 17.5228 22 12C22 6.47712 17.5228 1.99995 12 1.99997ZM15.066 9.99479L14.0053 8.93413L8.93424 14.0052L9.9949 15.0659L15.066 9.99479ZM15.4903 14.4993C15.4903 13.947 15.0426 13.4993 14.4903 13.4993C13.938 13.4993 13.4903 13.947 13.4903 14.4993C13.4903 15.0516 13.938 15.4993 14.4903 15.4993C15.0426 15.4993 15.4903 15.0516 15.4903 14.4993ZM10.5181 9.53357C10.5181 8.98128 10.0704 8.53357 9.51807 8.53357C8.96578 8.53357 8.51807 8.98128 8.51807 9.53357C8.51807 10.0859 8.96578 10.5336 9.51807 10.5336C10.0704 10.5336 10.5181 10.0859 10.5181 9.53357Z" fill="black"/>
</svg>
