<svg width="24" height="24" viewBox="0 0 24 24" fill="none" xmlns="http://www.w3.org/2000/svg">
<path d="M9.51807 8.53345C10.0704 8.53345 10.5181 8.98116 10.5181 9.53345C10.5181 10.0857 10.0704 10.5334 9.51807 10.5334C8.96578 10.5334 8.51807 10.0857 8.51807 9.53345C8.51807 8.98116 8.96578 8.53345 9.51807 8.53345Z" fill="black"/>
<path d="M15.066 9.99467L14.0053 8.93401L8.93424 14.0051L9.9949 15.0657L15.066 9.99467Z" fill="black"/>
<path d="M15.4903 14.4992C15.4903 13.9469 15.0426 13.4992 14.4903 13.4992C13.938 13.4992 13.4903 13.9469 13.4903 14.4992C13.4903 15.0514 13.938 15.4992 14.4903 15.4992C15.0426 15.4992 15.4903 15.0514 15.4903 14.4992Z" fill="black"/>
<path fill-rule="evenodd" clip-rule="evenodd" d="M12 22C17.5228 22 22 17.5228 22 12C22 6.47715 17.5228 2 12 2C6.47715 2 2 6.47715 2 12C2 17.5228 6.47715 22 12 22ZM12 20C16.4183 20 20 16.4183 20 12C20 7.58172 16.4183 4 12 4C7.58172 4 4 7.58172 4 12C4 16.4183 7.58172 20 12 20Z" fill="black"/>
</svg>
