<svg width="24" height="24" viewBox="0 0 24 24" fill="none" xmlns="http://www.w3.org/2000/svg">
<path fill-rule="evenodd" clip-rule="evenodd" d="M14.7373 2.5L15.12 4.628L15.2392 4.68169C15.5601 4.8305 15.8566 4.98617 16.1328 5.15198L16.4025 5.3213L16.561 5.431L16.8455 5.30393L18.5692 4.58918L21.5327 9.44852L20.2459 10.5561L19.846 10.905L19.8724 11.1049C19.8911 11.264 19.9053 11.4152 19.9149 11.5627L19.9256 11.782L19.9292 11.999C19.9292 12.2361 19.9163 12.4712 19.8899 12.7296L19.8589 12.9968L19.845 13.092L20.1074 13.3234L21.5379 14.5427L18.5752 19.3983L16.8533 18.6982L16.571 18.572C16.2799 18.7834 15.977 18.9727 15.6631 19.1387L15.3456 19.2969L15.115 19.397L14.7376 21.5H9.14375L8.77001 19.415L8.64231 19.363C8.36334 19.2398 8.09006 19.0941 7.81927 18.925L7.5492 18.7479L7.30601 18.574L6.95691 18.7292L5.30079 19.3878L2.34445 14.5427L3.64475 13.4358L3.96901 13.151L3.93645 12.8926C3.91771 12.7334 3.9035 12.5821 3.89398 12.4346L3.88322 12.2156L3.87961 11.999C3.87961 11.7634 3.89257 11.5289 3.91897 11.2707L3.94987 11.0036L3.97101 10.848L3.81944 10.7145L2.34515 9.45516L5.30716 4.60075L7.02949 5.301L7.31101 5.426C7.60017 5.21849 7.90414 5.02936 8.21936 4.86256L8.53818 4.70335L8.76601 4.602L9.1441 2.5H14.7373ZM13.0654 4.5H10.8169L10.5227 6.1381L10.0138 6.26471C9.45438 6.43173 8.83789 6.76354 8.2977 7.18707L8.07125 7.37398L7.58389 7.73822L7.09556 7.49669C6.96873 7.45708 6.83101 7.40103 6.68937 7.33921L6.30372 7.16654L6.12967 7.09252L4.94118 9.04032L5.4086 9.4491L5.57596 9.59277L5.75116 9.73666L6.13261 10.1116L6.0218 10.6609C5.95708 11.0514 5.87961 11.5686 5.87961 11.999C5.87961 12.3442 5.92919 12.7442 5.98317 13.0958L6.02376 13.3489L6.13261 13.8874L5.77861 14.238L5.62987 14.3603L5.49399 14.4759L4.94118 14.9587L6.12967 16.9065L6.30372 16.8329L6.69061 16.6596L6.91117 16.5675L7.14066 16.4838L7.58389 16.2608L8.05066 16.6085C8.66081 17.1366 9.21827 17.4746 9.80087 17.669L10.0207 17.7353L10.5227 17.86L10.8169 19.5H13.0654L13.3606 17.86L13.8695 17.7333C14.4358 17.5655 15.0389 17.2418 15.5829 16.8137L15.8121 16.6241L16.2994 16.2608L16.7868 16.5014C16.9136 16.5416 17.0514 16.5983 17.193 16.6602L17.5786 16.8325L17.7527 16.9065L18.9412 14.9587L18.7887 14.8271L18.6392 14.6948L18.3078 14.407L18.1312 14.2633L17.6693 13.9186L17.787 13.3381C17.8517 12.9486 17.9292 12.4334 17.9292 11.999C17.9292 11.6523 17.8796 11.2533 17.8257 10.9026L17.7851 10.6502L17.6693 10.0804L18.14 9.72984L18.3927 9.52009L18.9412 9.04032L17.7527 7.09155L17.5786 7.16642L17.1913 7.33989L16.971 7.43176L16.7417 7.51519L16.2994 7.73822L15.8327 7.39053C15.3838 7.00271 14.8349 6.67721 14.107 6.36684L13.8254 6.25107L13.3606 6.1381L13.0654 4.5ZM12 8C14.2091 8 16 9.79086 16 12C16 14.2091 14.2091 16 12 16C9.79087 16 8.00001 14.2091 8.00001 12C8.00001 9.79086 9.79087 8 12 8ZM12 10C10.8954 10 10 10.8954 10 12C10 13.1046 10.8954 14 12 14C13.1046 14 14 13.1046 14 12C14 10.8954 13.1046 10 12 10Z" fill="black"/>
</svg>
