<svg width="24" height="24" viewBox="0 0 24 24" fill="none" xmlns="http://www.w3.org/2000/svg">
<path fill-rule="evenodd" clip-rule="evenodd" d="M20.8388 5.63603C22.9271 7.72425 22.9851 11.0739 21.0129 13.2322L20.8388 13.4142L12 22.253L3.16117 13.4142C1.01328 11.2663 1.01328 7.78388 3.16117 5.636C5.24939 3.54778 8.59902 3.48977 10.7573 5.46198L10.9393 5.636L11.9993 6.69509L13.0607 5.63603C15.2085 3.48815 18.691 3.48815 20.8388 5.63603ZM14.6245 6.90903L14.4749 7.05024L11.9993 9.52509L9.52513 7.05021C8.25279 5.77787 6.24458 5.68991 4.87049 6.78632L4.71483 6.91808L4.57538 7.05021C3.25736 8.36823 3.21029 10.4759 4.43416 11.8503L4.57538 12L11.9993 19.4251L19.4246 12C20.697 10.7277 20.7849 8.71944 19.6885 7.34535L19.5568 7.18969L19.4246 7.05024C18.1554 5.78104 16.154 5.69038 14.7801 6.77827L14.6245 6.90903Z" fill="black"/>
</svg>
