<svg width="24" height="24" viewBox="0 0 24 24" fill="none" xmlns="http://www.w3.org/2000/svg">
<path fill-rule="evenodd" clip-rule="evenodd" d="M12.0076 2.83381L22.5148 9.14267L21.4853 10.8573L20.9998 10.5658L21.0001 18C21.0001 19.0544 20.1842 19.9182 19.1493 19.9945L19.0001 20H5.00007C3.9457 20 3.0819 19.1841 3.00555 18.1493L3.00007 18L2.99984 10.5658L2.51429 10.8577L1.48584 9.14235L12.0076 2.83381ZM12.0061 5.166L4.99984 9.36681L5.00007 18H9.50007V14C9.50007 13.4477 9.94778 13 10.5001 13H13.5001C14.0524 13 14.5001 13.4477 14.5001 14L14.5 18L19.0001 18L18.9998 9.36481L12.0061 5.166Z" fill="black"/>
</svg>
