<svg width="24" height="24" viewBox="0 0 24 24" fill="none" xmlns="http://www.w3.org/2000/svg">
<path fill-rule="evenodd" clip-rule="evenodd" d="M22.8114 8.9146C20.1025 5.15383 15.8065 2.94818 11.2479 3.00092C6.66105 3.00431 3 6.84 3 11.5005C3 12.5278 3.17789 13.515 3.50436 14.4299C2.61098 15.3383 1.81642 16.3622 1.1425 17.4855L0.628052 18.343L2.34309 19.3719L2.85754 18.5144C3.32971 17.7274 3.86806 16.9975 4.46268 16.3312C5.94706 18.5419 8.42468 20 11.2539 20C14.722 20 16.8229 17.7609 18.3857 15.5822C18.78 15.0325 19.1518 14.4696 19.5048 13.9343L19.528 13.8991C19.8763 13.3709 20.205 12.8724 20.5366 12.409C21.2261 11.4455 21.8513 10.7482 22.5084 10.3602C22.7504 10.2173 22.9211 9.97924 22.9787 9.70422C23.0364 9.42919 22.9757 9.14261 22.8114 8.9146ZM5.92835 14.9113C7.03513 16.7721 9.01832 18 11.2539 18C13.6954 18 15.2744 16.4883 16.7606 14.4164C17.1286 13.9034 17.4797 13.3724 17.8351 12.8333L17.8677 12.7839C18.2087 12.2667 18.5559 11.7401 18.9102 11.2451C19.4058 10.5525 19.952 9.86718 20.5825 9.3078C18.2389 6.53858 14.8372 4.958 11.2659 5.00085L11.2539 5.00092C7.83111 5.00092 5 7.87922 5 11.5005C5 12.0052 5.055 12.4955 5.15893 12.9655C7.10848 11.4686 9.38476 10.4455 11.8264 10.0151L12.8113 9.84155L13.1584 11.8112L12.1736 11.9848C9.87158 12.3905 7.72731 13.4072 5.92835 14.9113Z" fill="black"/>
</svg>
