<svg width="24" height="24" viewBox="0 0 24 24" fill="none" xmlns="http://www.w3.org/2000/svg">
<path d="M9.44845 10.4042L6.00021 12.1288L11.0002 13.1288L12.0002 18.1288L13.7238 14.6796L15.2151 16.1708L13.7893 19.0223C12.9373 20.7263 10.4123 20.3884 10.0393 18.5204L9.30099 14.829L5.60861 14.0897C3.79575 13.7277 3.42457 11.3379 4.96115 10.4198L5.10665 10.3397L7.95822 8.91393L9.44845 10.4042Z" fill="black"/>
<path d="M17.1067 4.33971C18.8256 3.48079 20.6491 5.30337 19.7893 7.02233L17.0998 12.3993L15.6096 10.909L18.0002 6.12877L13.219 8.51842L11.7287 7.02818L17.1067 4.33971Z" fill="black"/>
<path d="M4.68455 4.41421L6.09877 3L20.9496 17.8508L19.5354 19.265L4.68455 4.41421Z" fill="black"/>
<path d="M21.6562 17.8506L19.5352 19.9717L15.7607 16.1973L14.2363 19.2461C13.1715 21.3754 10.0151 20.9535 9.54883 18.6182L8.875 15.2529L5.51074 14.5801C3.24154 14.127 2.78247 11.1391 4.70508 9.99023L4.71191 9.98633L4.71973 9.98145L4.86523 9.90137L4.87402 9.89648L4.88281 9.89258L7.93164 8.36816L3.97754 4.41406L6.09863 2.29297L21.6562 17.8506ZM9.67188 10.8516L7.52637 11.9238L11.0986 12.6387L11.4248 12.7041L11.4902 13.0303L12.2041 16.6006L13.2764 14.4561L13.5234 13.96L10.167 10.6035L9.67188 10.8516ZM16.8828 3.89258C19.031 2.81919 21.3114 5.09681 20.2363 7.24609L17.5469 12.623L17.2363 13.2432L15.001 11.0078L16.8818 7.24609L13.1201 9.12695L10.8848 6.8916L11.5049 6.58105L16.8828 3.89258Z" stroke="white"/>
</svg>
