<svg width="24" height="24" viewBox="0 0 24 24" fill="none" xmlns="http://www.w3.org/2000/svg">
<path fill-rule="evenodd" clip-rule="evenodd" d="M13 21V23H11V21H13ZM12 1C14.1217 1 16.1566 1.84285 17.6569 3.34315C19.1571 4.84344 20 6.87827 20 9C20 11.88 18.41 14.417 15.872 15.983L15.349 16.296C15.1828 16.3992 15.0204 16.5082 14.862 16.623C14.067 17.201 13.565 17.793 13.272 18.383L13.242 18.449L13.175 18.621L12.947 19.268L12.881 19.435C12.859 19.4924 12.8304 19.5471 12.796 19.598L12.749 19.653L12.669 19.74C12.6217 19.7861 12.5656 19.8221 12.504 19.846L12.424 19.875L12.251 19.925L12 19.988L11.655 19.899C11.495 19.853 11.418 19.819 11.347 19.755L11.294 19.702L11.204 19.599C11.1829 19.5692 11.1648 19.5374 11.15 19.504L11.087 19.357L11.054 19.269L10.824 18.619L10.789 18.527L10.726 18.381C10.429 17.787 9.922 17.191 9.118 16.61C8.96113 16.4971 8.80037 16.3897 8.636 16.288L8.118 15.978C5.583 14.415 4 11.88 4 9C4 6.87827 4.84285 4.84344 6.34315 3.34315C7.84344 1.84285 9.87827 1 12 1ZM12 3C10.4087 3 8.88258 3.63214 7.75736 4.75736C6.63214 5.88258 6 7.4087 6 9C6 11.134 7.181 13.038 9.136 14.256L9.694 14.59C9.902 14.72 10.1 14.852 10.288 14.988C10.898 15.428 11.394 15.893 11.789 16.375L11.999 16.646L12.204 16.381C12.4891 16.035 12.805 15.7157 13.148 15.427L13.43 15.198L13.687 15.005C13.877 14.866 14.079 14.731 14.29 14.599L14.854 14.261C16.812 13.04 18 11.133 18 9C18 7.4087 17.3679 5.88258 16.2426 4.75736C15.1174 3.63214 13.5913 3 12 3ZM14.121 5.481L15.536 6.896L13.414 9.016L15.536 11.138L14.121 12.552L12 10.431L9.879 12.552L8.464 11.138L10.586 9.017L8.464 6.896L9.88 5.48L12 7.603L14.121 5.481Z" fill="black"/>
</svg>
