<svg width="24" height="24" viewBox="0 0 24 24" fill="none" xmlns="http://www.w3.org/2000/svg">
<path fill-rule="evenodd" clip-rule="evenodd" d="M13 21V23H11V21H13ZM12 1C16.4183 1 20 4.58172 20 9C20 11.8805 18.4102 14.4172 15.8722 15.983L15.3494 16.2956C15.1772 16.4028 15.0147 16.512 14.8618 16.623C14.0665 17.2005 13.5653 17.7933 13.2714 18.3836L13.2417 18.4487L13.1747 18.6211L12.9467 19.2685L12.8814 19.4345C12.8501 19.5082 12.8212 19.5658 12.7962 19.5978L12.7491 19.6535L12.6692 19.7401C12.6218 19.7855 12.5749 19.8169 12.5041 19.846L12.4245 19.8748L12.2506 19.9244L12 19.9877L11.6551 19.899C11.4941 19.8534 11.4184 19.8186 11.3473 19.7552L11.2936 19.7016L11.2048 19.5991C11.1881 19.5778 11.1697 19.5451 11.15 19.5038L11.0873 19.3569L11.0538 19.2693L10.8242 18.6197L10.7893 18.5269L10.7265 18.3808C10.4294 17.7872 9.92232 17.1908 9.11754 16.6097C8.96643 16.5006 8.80615 16.3933 8.63641 16.2879L8.11799 15.9782C5.58274 14.4145 4 11.8805 4 9C4 4.58172 7.58172 1 12 1ZM12 3C8.68629 3 6 5.68629 6 9C6 11.1338 7.18145 13.0381 9.13564 14.256L9.69368 14.5902C9.90187 14.7196 10.1 14.8523 10.2883 14.9883C10.8976 15.4282 11.3936 15.8929 11.7891 16.3749L11.999 16.646L12.2043 16.3809C12.4713 16.0542 12.7845 15.7356 13.1478 15.4273L13.4297 15.198L13.6866 15.0047C13.8776 14.866 14.0788 14.7307 14.2904 14.599L14.8543 14.2609C16.8122 13.0404 18 11.1325 18 9C18 5.68629 15.3137 3 12 3ZM12 6C13.6569 6 15 7.34315 15 9C15 10.6569 13.6569 12 12 12C10.3431 12 9 10.6569 9 9C9 7.34315 10.3431 6 12 6ZM12 8C11.4477 8 11 8.44772 11 9C11 9.55229 11.4477 10 12 10C12.5523 10 13 9.55229 13 9C13 8.44772 12.5523 8 12 8Z" fill="black"/>
</svg>
