<svg width="24" height="24" viewBox="0 0 24 24" fill="none" xmlns="http://www.w3.org/2000/svg">
<path d="M17.5 15.62C16.7403 15.62 16.052 15.8748 15.4931 16.2841L8.9658 12.485C8.98637 12.3437 9 12.195 9 12.04C9 11.8849 8.98635 11.7361 8.96576 11.5947L15.4095 7.8382C15.9919 8.27521 16.711 8.53998 17.5 8.53998C19.4361 8.53998 21 6.97612 21 5.03998C21 3.10384 19.4361 1.53998 17.5 1.53998C15.5639 1.53998 14 3.10384 14 5.03998C14 5.19505 14.0137 5.34385 14.0342 5.48521L7.59053 9.24176C7.00811 8.80475 6.28905 8.53998 5.5 8.53998C3.56386 8.53998 2 10.1038 2 12.04C2 13.9761 3.56386 15.54 5.5 15.54C6.28891 15.54 7.00787 15.2753 7.59024 14.8384L14.1056 18.6452C14.0892 18.7743 14.08 18.9065 14.08 19.04C14.08 20.9261 15.6139 22.46 17.5 22.46C19.3861 22.46 20.92 20.9261 20.92 19.04C20.92 17.1538 19.3861 15.62 17.5 15.62Z" fill="black"/>
</svg>
