<svg width="24" height="24" viewBox="0 0 24 24" fill="none" xmlns="http://www.w3.org/2000/svg">
<path fill-rule="evenodd" clip-rule="evenodd" d="M1.51239 10.6099C7.41795 7.78741 11.3559 5.92667 13.3263 5.02765C18.9521 2.46077 20.1211 2.01488 20.883 2.00016C21.0506 1.99692 21.4253 2.04248 21.668 2.25852C21.873 2.44094 21.9294 2.68737 21.9563 2.86033C21.9833 3.03328 22.0169 3.42728 21.9902 3.73514C21.6854 7.249 20.3662 15.7762 19.6951 19.7118C19.4111 21.3771 18.852 21.9354 18.3107 21.9901C17.1343 22.1088 16.2409 21.1372 15.1015 20.3179C13.3186 19.0358 12.3113 18.2377 10.5807 16.9867C8.58058 15.5408 9.87715 14.7462 11.017 13.4475C11.3153 13.1076 16.4986 7.93584 16.5989 7.46668C16.6115 7.40801 16.6231 7.18929 16.5047 7.0738C16.3862 6.9583 16.2114 6.9978 16.0852 7.02921C15.9064 7.07373 13.0581 9.1389 7.54035 13.2247C6.73187 13.8337 5.99958 14.1304 5.34347 14.1149C4.62016 14.0977 3.2288 13.6663 2.19447 13.2974C0.925826 12.8451 -0.0824703 12.6059 0.00532971 11.8376C0.0510613 11.4374 0.553413 11.0282 1.51239 10.6099Z" fill="black"/>
</svg>
