<svg width="24" height="24" viewBox="0 0 24 24" fill="none" xmlns="http://www.w3.org/2000/svg">
<path d="M11.9998 18C12.4331 18 12.7914 17.8583 13.0748 17.575C13.3581 17.2917 13.4998 16.9333 13.4998 16.5C13.4998 16.0667 13.3581 15.7083 13.0748 15.425C12.7914 15.1417 12.4331 15 11.9998 15C11.5664 15 11.2081 15.1417 10.9248 15.425C10.6414 15.7083 10.4998 16.0667 10.4998 16.5C10.4998 16.9333 10.6414 17.2917 10.9248 17.575C11.2081 17.8583 11.5664 18 11.9998 18ZM11.9998 13.5C12.4331 13.5 12.7914 13.3583 13.0748 13.075C13.3581 12.7917 13.4998 12.4333 13.4998 12C13.4998 11.5667 13.3581 11.2083 13.0748 10.925C12.7914 10.6417 12.4331 10.5 11.9998 10.5C11.5664 10.5 11.2081 10.6417 10.9248 10.925C10.6414 11.2083 10.4998 11.5667 10.4998 12C10.4998 12.4333 10.6414 12.7917 10.9248 13.075C11.2081 13.3583 11.5664 13.5 11.9998 13.5ZM11.9998 9C12.4331 9 12.7914 8.85833 13.0748 8.575C13.3581 8.29167 13.4998 7.93333 13.4998 7.5C13.4998 7.06667 13.3581 6.70833 13.0748 6.425C12.7914 6.14167 12.4331 6 11.9998 6C11.5664 6 11.2081 6.14167 10.9248 6.425C10.6414 6.70833 10.4998 7.06667 10.4998 7.5C10.4998 7.93333 10.6414 8.29167 10.9248 8.575C11.2081 8.85833 11.5664 9 11.9998 9ZM6.99977 15V13.85C6.14977 13.6167 5.43727 13.15 4.86227 12.45C4.39212 11.8776 4.11418 11.2273 4.02845 10.4989C3.99617 10.2247 4.22363 10 4.49977 10H6.99977V8.85C6.14977 8.61667 5.43727 8.15 4.86227 7.45C4.39212 6.87764 4.11418 6.22729 4.02845 5.49893C3.99617 5.22468 4.22363 5 4.49977 5H6.99977C6.99977 4.45 7.19561 3.97917 7.58727 3.5875C7.97894 3.19583 8.44977 3 8.99977 3H14.9998C15.5498 3 16.0206 3.19583 16.4123 3.5875C16.8039 3.97917 16.9998 4.45 16.9998 5H19.4998C19.7759 5 20.0034 5.22468 19.9711 5.49893C19.8854 6.22729 19.6074 6.87764 19.1373 7.45C18.5623 8.15 17.8498 8.61667 16.9998 8.85V10H19.4998C19.7759 10 20.0034 10.2247 19.9711 10.4989C19.8854 11.2273 19.6074 11.8776 19.1373 12.45C18.5623 13.15 17.8498 13.6167 16.9998 13.85V15H19.4998C19.7759 15 20.0034 15.2247 19.9711 15.4989C19.8854 16.2273 19.6074 16.8776 19.1373 17.45C18.5623 18.15 17.8498 18.6167 16.9998 18.85V19C16.9998 19.55 16.8039 20.0208 16.4123 20.4125C16.0206 20.8042 15.5498 21 14.9998 21H8.99977C8.44977 21 7.97894 20.8042 7.58727 20.4125C7.19561 20.0208 6.99977 19.55 6.99977 19V18.85C6.14977 18.6167 5.43727 18.15 4.86227 17.45C4.39212 16.8776 4.11418 16.2273 4.02845 15.4989C3.99617 15.2247 4.22363 15 4.49977 15H6.99977Z" fill="black"/>
</svg>
