<svg width="24" height="24" viewBox="0 0 24 24" fill="none" xmlns="http://www.w3.org/2000/svg">
<path fill-rule="evenodd" clip-rule="evenodd" d="M4.82373 3.00509L5 3H17.5C18.0523 3 18.5 3.44772 18.5 4V7H20C21.0544 7 21.9182 7.81588 21.9945 8.85074L22 9V19C22 20.0544 21.1841 20.9182 20.1493 20.9945L20 21H4C2.94564 21 2.08183 20.1841 2.00549 19.1493L2 19V6L2.00509 5.82373C2.09296 4.30725 3.30725 3.09296 4.82373 3.00509ZM5 7L4.88338 6.99327C4.38604 6.93551 4 6.51284 4 6C4 5.44772 4.44772 5 5 5H16.5V7H5ZM4 19V8.829L4.14827 8.87737C4.41827 8.95717 4.70413 9 5 9H20V19H4Z" fill="black"/>
<path d="M18 14C18 14.8284 17.3284 15.5 16.5 15.5C15.6716 15.5 15 14.8284 15 14C15 13.1716 15.6716 12.5 16.5 12.5C17.3284 12.5 18 13.1716 18 14Z" fill="black"/>
</svg>
