<svg width="24" height="24" viewBox="0 0 24 24" fill="none" xmlns="http://www.w3.org/2000/svg">
<path fill-rule="evenodd" clip-rule="evenodd" d="M18.5 4C18.5 3.44772 18.0523 3 17.5 3H5L4.82373 3.00509C3.30725 3.09296 2.09296 4.30725 2.00509 5.82373L2 6V19L2.00549 19.1493C2.08183 20.1841 2.94564 21 4 21H19.5L20.1493 20.9945C21.1841 20.9182 22 20.0544 22 19V9L21.9945 8.85074C21.9182 7.81588 20.5544 7 19.5 7H18.5V4ZM5 5H16.5V7H5L4.88338 6.99327C4.38604 6.93551 4 6.51284 4 6C4 5.44772 4.44772 5 5 5ZM16.5 15.5C17.3284 15.5 18 14.8284 18 14C18 13.1716 17.3284 12.5 16.5 12.5C15.6716 12.5 15 13.1716 15 14C15 14.8284 15.6716 15.5 16.5 15.5Z" fill="black"/>
</svg>
